<mxfile host="app.diagrams.net" agent="Mozilla/5.0 (Windows NT 10.0; Win64; x64) AppleWebKit/537.36 (KHTML, like Gecko) Chrome/128.0.0.0 Safari/537.36" version="24.7.7">
  <diagram name="Page-1" id="zcC_F7rGRqWXH8MJVp8U">
    <mxGraphModel dx="1050" dy="569" grid="1" gridSize="10" guides="1" tooltips="1" connect="1" arrows="1" fold="1" page="1" pageScale="1" pageWidth="850" pageHeight="1100" math="0" shadow="0">
      <root>
        <mxCell id="0" />
        <mxCell id="1" parent="0" />
        <mxCell id="U0pfPZSXKxCvl-s96Uc3-25" value="" style="edgeStyle=orthogonalEdgeStyle;rounded=0;orthogonalLoop=1;jettySize=auto;html=1;" edge="1" parent="1" source="U0pfPZSXKxCvl-s96Uc3-1" target="U0pfPZSXKxCvl-s96Uc3-2">
          <mxGeometry relative="1" as="geometry" />
        </mxCell>
        <mxCell id="U0pfPZSXKxCvl-s96Uc3-1" value="START" style="ellipse;whiteSpace=wrap;html=1;" vertex="1" parent="1">
          <mxGeometry x="350" y="50" width="120" height="80" as="geometry" />
        </mxCell>
        <mxCell id="U0pfPZSXKxCvl-s96Uc3-26" value="" style="edgeStyle=orthogonalEdgeStyle;rounded=0;orthogonalLoop=1;jettySize=auto;html=1;" edge="1" parent="1" source="U0pfPZSXKxCvl-s96Uc3-2" target="U0pfPZSXKxCvl-s96Uc3-3">
          <mxGeometry relative="1" as="geometry" />
        </mxCell>
        <mxCell id="U0pfPZSXKxCvl-s96Uc3-48" style="edgeStyle=orthogonalEdgeStyle;rounded=0;orthogonalLoop=1;jettySize=auto;html=1;entryX=0;entryY=0.5;entryDx=0;entryDy=0;" edge="1" parent="1" source="U0pfPZSXKxCvl-s96Uc3-2" target="U0pfPZSXKxCvl-s96Uc3-8">
          <mxGeometry relative="1" as="geometry">
            <Array as="points">
              <mxPoint x="130" y="240" />
              <mxPoint x="130" y="740" />
            </Array>
          </mxGeometry>
        </mxCell>
        <mxCell id="U0pfPZSXKxCvl-s96Uc3-2" value="User Authenticated" style="rhombus;whiteSpace=wrap;html=1;" vertex="1" parent="1">
          <mxGeometry x="365" y="190" width="90" height="100" as="geometry" />
        </mxCell>
        <mxCell id="U0pfPZSXKxCvl-s96Uc3-27" style="edgeStyle=orthogonalEdgeStyle;rounded=0;orthogonalLoop=1;jettySize=auto;html=1;" edge="1" parent="1" source="U0pfPZSXKxCvl-s96Uc3-3" target="U0pfPZSXKxCvl-s96Uc3-7">
          <mxGeometry relative="1" as="geometry" />
        </mxCell>
        <mxCell id="U0pfPZSXKxCvl-s96Uc3-49" style="edgeStyle=orthogonalEdgeStyle;rounded=0;orthogonalLoop=1;jettySize=auto;html=1;entryX=0.5;entryY=0;entryDx=0;entryDy=0;" edge="1" parent="1" source="U0pfPZSXKxCvl-s96Uc3-3" target="U0pfPZSXKxCvl-s96Uc3-6">
          <mxGeometry relative="1" as="geometry" />
        </mxCell>
        <mxCell id="U0pfPZSXKxCvl-s96Uc3-3" value="User Account" style="rhombus;whiteSpace=wrap;html=1;" vertex="1" parent="1">
          <mxGeometry x="365" y="330" width="90" height="100" as="geometry" />
        </mxCell>
        <mxCell id="U0pfPZSXKxCvl-s96Uc3-51" style="edgeStyle=orthogonalEdgeStyle;rounded=0;orthogonalLoop=1;jettySize=auto;html=1;entryX=0;entryY=0.5;entryDx=0;entryDy=0;" edge="1" parent="1" source="U0pfPZSXKxCvl-s96Uc3-5" target="U0pfPZSXKxCvl-s96Uc3-7">
          <mxGeometry relative="1" as="geometry" />
        </mxCell>
        <mxCell id="U0pfPZSXKxCvl-s96Uc3-5" value="Encryption key" style="rounded=0;whiteSpace=wrap;html=1;" vertex="1" parent="1">
          <mxGeometry x="230" y="520" width="120" height="60" as="geometry" />
        </mxCell>
        <mxCell id="U0pfPZSXKxCvl-s96Uc3-50" value="" style="edgeStyle=orthogonalEdgeStyle;rounded=0;orthogonalLoop=1;jettySize=auto;html=1;" edge="1" parent="1" source="U0pfPZSXKxCvl-s96Uc3-6" target="U0pfPZSXKxCvl-s96Uc3-5">
          <mxGeometry relative="1" as="geometry" />
        </mxCell>
        <mxCell id="U0pfPZSXKxCvl-s96Uc3-6" value="Register" style="rounded=0;whiteSpace=wrap;html=1;" vertex="1" parent="1">
          <mxGeometry x="230" y="420" width="120" height="60" as="geometry" />
        </mxCell>
        <mxCell id="U0pfPZSXKxCvl-s96Uc3-28" value="" style="edgeStyle=orthogonalEdgeStyle;rounded=0;orthogonalLoop=1;jettySize=auto;html=1;" edge="1" parent="1" source="U0pfPZSXKxCvl-s96Uc3-7" target="U0pfPZSXKxCvl-s96Uc3-8">
          <mxGeometry relative="1" as="geometry" />
        </mxCell>
        <mxCell id="U0pfPZSXKxCvl-s96Uc3-7" value="Login" style="rounded=0;whiteSpace=wrap;html=1;" vertex="1" parent="1">
          <mxGeometry x="350" y="610" width="120" height="60" as="geometry" />
        </mxCell>
        <mxCell id="U0pfPZSXKxCvl-s96Uc3-29" value="" style="edgeStyle=orthogonalEdgeStyle;rounded=0;orthogonalLoop=1;jettySize=auto;html=1;" edge="1" parent="1" source="U0pfPZSXKxCvl-s96Uc3-8" target="U0pfPZSXKxCvl-s96Uc3-9">
          <mxGeometry relative="1" as="geometry" />
        </mxCell>
        <mxCell id="U0pfPZSXKxCvl-s96Uc3-8" value="Main Menu" style="rounded=0;whiteSpace=wrap;html=1;" vertex="1" parent="1">
          <mxGeometry x="350" y="710" width="120" height="60" as="geometry" />
        </mxCell>
        <mxCell id="U0pfPZSXKxCvl-s96Uc3-30" style="edgeStyle=orthogonalEdgeStyle;rounded=0;orthogonalLoop=1;jettySize=auto;html=1;entryX=0.5;entryY=0;entryDx=0;entryDy=0;" edge="1" parent="1" source="U0pfPZSXKxCvl-s96Uc3-9" target="U0pfPZSXKxCvl-s96Uc3-10">
          <mxGeometry relative="1" as="geometry" />
        </mxCell>
        <mxCell id="U0pfPZSXKxCvl-s96Uc3-31" style="edgeStyle=orthogonalEdgeStyle;rounded=0;orthogonalLoop=1;jettySize=auto;html=1;exitX=0.5;exitY=1;exitDx=0;exitDy=0;entryX=0.5;entryY=0;entryDx=0;entryDy=0;" edge="1" parent="1" source="U0pfPZSXKxCvl-s96Uc3-9" target="U0pfPZSXKxCvl-s96Uc3-16">
          <mxGeometry relative="1" as="geometry" />
        </mxCell>
        <mxCell id="U0pfPZSXKxCvl-s96Uc3-32" style="edgeStyle=orthogonalEdgeStyle;rounded=0;orthogonalLoop=1;jettySize=auto;html=1;entryX=0.5;entryY=0;entryDx=0;entryDy=0;" edge="1" parent="1" source="U0pfPZSXKxCvl-s96Uc3-9" target="U0pfPZSXKxCvl-s96Uc3-20">
          <mxGeometry relative="1" as="geometry" />
        </mxCell>
        <mxCell id="U0pfPZSXKxCvl-s96Uc3-9" value="User Action" style="rhombus;whiteSpace=wrap;html=1;" vertex="1" parent="1">
          <mxGeometry x="365" y="830" width="90" height="100" as="geometry" />
        </mxCell>
        <mxCell id="U0pfPZSXKxCvl-s96Uc3-33" value="" style="edgeStyle=orthogonalEdgeStyle;rounded=0;orthogonalLoop=1;jettySize=auto;html=1;" edge="1" parent="1" source="U0pfPZSXKxCvl-s96Uc3-10" target="U0pfPZSXKxCvl-s96Uc3-11">
          <mxGeometry relative="1" as="geometry" />
        </mxCell>
        <mxCell id="U0pfPZSXKxCvl-s96Uc3-10" value="Notes" style="rounded=0;whiteSpace=wrap;html=1;" vertex="1" parent="1">
          <mxGeometry x="78" y="1040" width="120" height="60" as="geometry" />
        </mxCell>
        <mxCell id="U0pfPZSXKxCvl-s96Uc3-34" style="edgeStyle=orthogonalEdgeStyle;rounded=0;orthogonalLoop=1;jettySize=auto;html=1;" edge="1" parent="1" source="U0pfPZSXKxCvl-s96Uc3-11" target="U0pfPZSXKxCvl-s96Uc3-12">
          <mxGeometry relative="1" as="geometry" />
        </mxCell>
        <mxCell id="U0pfPZSXKxCvl-s96Uc3-35" style="edgeStyle=orthogonalEdgeStyle;rounded=0;orthogonalLoop=1;jettySize=auto;html=1;entryX=0.5;entryY=0;entryDx=0;entryDy=0;" edge="1" parent="1" source="U0pfPZSXKxCvl-s96Uc3-11" target="U0pfPZSXKxCvl-s96Uc3-13">
          <mxGeometry relative="1" as="geometry" />
        </mxCell>
        <mxCell id="U0pfPZSXKxCvl-s96Uc3-11" value="Markdown" style="rhombus;whiteSpace=wrap;html=1;" vertex="1" parent="1">
          <mxGeometry x="90.5" y="1150" width="95" height="100" as="geometry" />
        </mxCell>
        <mxCell id="U0pfPZSXKxCvl-s96Uc3-36" style="edgeStyle=orthogonalEdgeStyle;rounded=0;orthogonalLoop=1;jettySize=auto;html=1;entryX=1;entryY=0.5;entryDx=0;entryDy=0;" edge="1" parent="1" source="U0pfPZSXKxCvl-s96Uc3-12" target="U0pfPZSXKxCvl-s96Uc3-13">
          <mxGeometry relative="1" as="geometry">
            <Array as="points">
              <mxPoint x="240" y="1400" />
            </Array>
          </mxGeometry>
        </mxCell>
        <mxCell id="U0pfPZSXKxCvl-s96Uc3-12" value="Plain Text" style="rounded=0;whiteSpace=wrap;html=1;" vertex="1" parent="1">
          <mxGeometry x="213" y="1280" width="120" height="60" as="geometry" />
        </mxCell>
        <mxCell id="U0pfPZSXKxCvl-s96Uc3-37" value="" style="edgeStyle=orthogonalEdgeStyle;rounded=0;orthogonalLoop=1;jettySize=auto;html=1;" edge="1" parent="1" source="U0pfPZSXKxCvl-s96Uc3-13" target="U0pfPZSXKxCvl-s96Uc3-14">
          <mxGeometry relative="1" as="geometry" />
        </mxCell>
        <mxCell id="U0pfPZSXKxCvl-s96Uc3-13" value="Location" style="rounded=0;whiteSpace=wrap;html=1;" vertex="1" parent="1">
          <mxGeometry x="78" y="1370" width="120" height="60" as="geometry" />
        </mxCell>
        <mxCell id="U0pfPZSXKxCvl-s96Uc3-38" style="edgeStyle=orthogonalEdgeStyle;rounded=0;orthogonalLoop=1;jettySize=auto;html=1;entryX=0;entryY=0.5;entryDx=0;entryDy=0;" edge="1" parent="1" source="U0pfPZSXKxCvl-s96Uc3-14" target="U0pfPZSXKxCvl-s96Uc3-15">
          <mxGeometry relative="1" as="geometry">
            <Array as="points">
              <mxPoint x="138" y="1600" />
            </Array>
          </mxGeometry>
        </mxCell>
        <mxCell id="U0pfPZSXKxCvl-s96Uc3-14" value="Encrypt Note" style="rounded=0;whiteSpace=wrap;html=1;" vertex="1" parent="1">
          <mxGeometry x="78" y="1500" width="120" height="60" as="geometry" />
        </mxCell>
        <mxCell id="U0pfPZSXKxCvl-s96Uc3-57" style="edgeStyle=orthogonalEdgeStyle;rounded=0;orthogonalLoop=1;jettySize=auto;html=1;entryX=1;entryY=0.75;entryDx=0;entryDy=0;" edge="1" parent="1" source="U0pfPZSXKxCvl-s96Uc3-15" target="U0pfPZSXKxCvl-s96Uc3-8">
          <mxGeometry relative="1" as="geometry">
            <Array as="points">
              <mxPoint x="480" y="1680" />
              <mxPoint x="800" y="1680" />
              <mxPoint x="800" y="755" />
            </Array>
          </mxGeometry>
        </mxCell>
        <mxCell id="U0pfPZSXKxCvl-s96Uc3-15" value="Save Note to Server" style="rounded=0;whiteSpace=wrap;html=1;" vertex="1" parent="1">
          <mxGeometry x="380" y="1570" width="200" height="60" as="geometry" />
        </mxCell>
        <mxCell id="U0pfPZSXKxCvl-s96Uc3-39" value="" style="edgeStyle=orthogonalEdgeStyle;rounded=0;orthogonalLoop=1;jettySize=auto;html=1;" edge="1" parent="1" source="U0pfPZSXKxCvl-s96Uc3-16" target="U0pfPZSXKxCvl-s96Uc3-17">
          <mxGeometry relative="1" as="geometry" />
        </mxCell>
        <mxCell id="U0pfPZSXKxCvl-s96Uc3-16" value="View Notes" style="rounded=0;whiteSpace=wrap;html=1;" vertex="1" parent="1">
          <mxGeometry x="418" y="1000" width="120" height="60" as="geometry" />
        </mxCell>
        <mxCell id="U0pfPZSXKxCvl-s96Uc3-40" value="" style="edgeStyle=orthogonalEdgeStyle;rounded=0;orthogonalLoop=1;jettySize=auto;html=1;" edge="1" parent="1" source="U0pfPZSXKxCvl-s96Uc3-17" target="U0pfPZSXKxCvl-s96Uc3-18">
          <mxGeometry relative="1" as="geometry" />
        </mxCell>
        <mxCell id="U0pfPZSXKxCvl-s96Uc3-17" value="Fetch Notes" style="rounded=0;whiteSpace=wrap;html=1;" vertex="1" parent="1">
          <mxGeometry x="418" y="1130" width="120" height="60" as="geometry" />
        </mxCell>
        <mxCell id="U0pfPZSXKxCvl-s96Uc3-41" value="" style="edgeStyle=orthogonalEdgeStyle;rounded=0;orthogonalLoop=1;jettySize=auto;html=1;" edge="1" parent="1" source="U0pfPZSXKxCvl-s96Uc3-18" target="U0pfPZSXKxCvl-s96Uc3-19">
          <mxGeometry relative="1" as="geometry" />
        </mxCell>
        <mxCell id="U0pfPZSXKxCvl-s96Uc3-18" value="Decrypt" style="rounded=0;whiteSpace=wrap;html=1;" vertex="1" parent="1">
          <mxGeometry x="418" y="1280" width="120" height="60" as="geometry" />
        </mxCell>
        <mxCell id="U0pfPZSXKxCvl-s96Uc3-58" value="" style="edgeStyle=orthogonalEdgeStyle;rounded=0;orthogonalLoop=1;jettySize=auto;html=1;" edge="1" parent="1" source="U0pfPZSXKxCvl-s96Uc3-19" target="U0pfPZSXKxCvl-s96Uc3-15">
          <mxGeometry relative="1" as="geometry" />
        </mxCell>
        <mxCell id="U0pfPZSXKxCvl-s96Uc3-19" value="Display Note Content" style="rounded=0;whiteSpace=wrap;html=1;" vertex="1" parent="1">
          <mxGeometry x="418" y="1430" width="120" height="60" as="geometry" />
        </mxCell>
        <mxCell id="U0pfPZSXKxCvl-s96Uc3-43" value="" style="edgeStyle=orthogonalEdgeStyle;rounded=0;orthogonalLoop=1;jettySize=auto;html=1;" edge="1" parent="1" source="U0pfPZSXKxCvl-s96Uc3-20" target="U0pfPZSXKxCvl-s96Uc3-21">
          <mxGeometry relative="1" as="geometry" />
        </mxCell>
        <mxCell id="U0pfPZSXKxCvl-s96Uc3-20" value="Search Notes" style="rounded=0;whiteSpace=wrap;html=1;" vertex="1" parent="1">
          <mxGeometry x="653" y="1000" width="120" height="60" as="geometry" />
        </mxCell>
        <mxCell id="U0pfPZSXKxCvl-s96Uc3-44" value="" style="edgeStyle=orthogonalEdgeStyle;rounded=0;orthogonalLoop=1;jettySize=auto;html=1;" edge="1" parent="1" source="U0pfPZSXKxCvl-s96Uc3-21" target="U0pfPZSXKxCvl-s96Uc3-22">
          <mxGeometry relative="1" as="geometry" />
        </mxCell>
        <mxCell id="U0pfPZSXKxCvl-s96Uc3-21" value="Enter Context&lt;span style=&quot;color: rgba(0, 0, 0, 0); font-family: monospace; font-size: 0px; text-align: start; text-wrap: nowrap;&quot;&gt;%3CmxGraphModel%3E%3Croot%3E%3CmxCell%20id%3D%220%22%2F%3E%3CmxCell%20id%3D%221%22%20parent%3D%220%22%2F%3E%3CmxCell%20id%3D%222%22%20value%3D%22%22%20style%3D%22rounded%3D0%3BwhiteSpace%3Dwrap%3Bhtml%3D1%3B%22%20vertex%3D%221%22%20parent%3D%221%22%3E%3CmxGeometry%20x%3D%22660%22%20y%3D%22890%22%20width%3D%22120%22%20height%3D%2260%22%20as%3D%22geometry%22%2F%3E%3C%2FmxCell%3E%3C%2Froot%3E%3C%2FmxGraphModel%3E&lt;/span&gt;" style="rounded=0;whiteSpace=wrap;html=1;" vertex="1" parent="1">
          <mxGeometry x="653" y="1140" width="120" height="60" as="geometry" />
        </mxCell>
        <mxCell id="U0pfPZSXKxCvl-s96Uc3-45" value="" style="edgeStyle=orthogonalEdgeStyle;rounded=0;orthogonalLoop=1;jettySize=auto;html=1;" edge="1" parent="1" source="U0pfPZSXKxCvl-s96Uc3-22" target="U0pfPZSXKxCvl-s96Uc3-23">
          <mxGeometry relative="1" as="geometry" />
        </mxCell>
        <mxCell id="U0pfPZSXKxCvl-s96Uc3-22" value="Fetch by context&lt;span style=&quot;color: rgba(0, 0, 0, 0); font-family: monospace; font-size: 0px; text-align: start; text-wrap: nowrap;&quot;&gt;%3CmxGraphModel%3E%3Croot%3E%3CmxCell%20id%3D%220%22%2F%3E%3CmxCell%20id%3D%221%22%20parent%3D%220%22%2F%3E%3CmxCell%20id%3D%222%22%20value%3D%22Enter%20Context%26lt%3Bspan%20style%3D%26quot%3Bcolor%3A%20rgba(0%2C%200%2C%200%2C%200)%3B%20font-family%3A%20monospace%3B%20font-size%3A%200px%3B%20text-align%3A%20start%3B%20text-wrap%3A%20nowrap%3B%26quot%3B%26gt%3B%253CmxGraphModel%253E%253Croot%253E%253CmxCell%2520id%253D%25220%2522%252F%253E%253CmxCell%2520id%253D%25221%2522%2520parent%253D%25220%2522%252F%253E%253CmxCell%2520id%253D%25222%2522%2520value%253D%2522%2522%2520style%253D%2522rounded%253D0%253BwhiteSpace%253Dwrap%253Bhtml%253D1%253B%2522%2520vertex%253D%25221%2522%2520parent%253D%25221%2522%253E%253CmxGeometry%2520x%253D%2522660%2522%2520y%253D%2522890%2522%2520width%253D%2522120%2522%2520height%253D%252260%2522%2520as%253D%2522geometry%2522%252F%253E%253C%252FmxCell%253E%253C%252Froot%253E%253C%252FmxGraphModel%253E%26lt%3B%2Fspan%26gt%3B%22%20style%3D%22rounded%3D0%3BwhiteSpace%3Dwrap%3Bhtml%3D1%3B%22%20vertex%3D%221%22%20parent%3D%221%22%3E%3CmxGeometry%20x%3D%22660%22%20y%3D%221030%22%20width%3D%22120%22%20height%3D%2260%22%20as%3D%22geometry%22%2F%3E%3C%2FmxCell%3E%3C%2Froot%3E%3C%2FmxGraphModel%3E&lt;/span&gt;" style="rounded=0;whiteSpace=wrap;html=1;" vertex="1" parent="1">
          <mxGeometry x="653" y="1290" width="120" height="60" as="geometry" />
        </mxCell>
        <mxCell id="U0pfPZSXKxCvl-s96Uc3-46" value="" style="edgeStyle=orthogonalEdgeStyle;rounded=0;orthogonalLoop=1;jettySize=auto;html=1;" edge="1" parent="1" source="U0pfPZSXKxCvl-s96Uc3-23" target="U0pfPZSXKxCvl-s96Uc3-24">
          <mxGeometry relative="1" as="geometry" />
        </mxCell>
        <mxCell id="U0pfPZSXKxCvl-s96Uc3-23" value="Decrypt Note" style="rounded=0;whiteSpace=wrap;html=1;" vertex="1" parent="1">
          <mxGeometry x="653" y="1390" width="120" height="60" as="geometry" />
        </mxCell>
        <mxCell id="U0pfPZSXKxCvl-s96Uc3-24" value="Display Note Content" style="rounded=0;whiteSpace=wrap;html=1;" vertex="1" parent="1">
          <mxGeometry x="653" y="1510" width="120" height="60" as="geometry" />
        </mxCell>
        <mxCell id="U0pfPZSXKxCvl-s96Uc3-52" value="Yes" style="text;html=1;align=center;verticalAlign=middle;resizable=0;points=[];autosize=1;strokeColor=none;fillColor=none;" vertex="1" parent="1">
          <mxGeometry x="410" y="498" width="40" height="30" as="geometry" />
        </mxCell>
        <mxCell id="U0pfPZSXKxCvl-s96Uc3-53" value="No" style="text;html=1;align=center;verticalAlign=middle;resizable=0;points=[];autosize=1;strokeColor=none;fillColor=none;" vertex="1" parent="1">
          <mxGeometry x="240" y="378" width="40" height="30" as="geometry" />
        </mxCell>
        <mxCell id="U0pfPZSXKxCvl-s96Uc3-54" value="No" style="text;html=1;align=center;verticalAlign=middle;resizable=0;points=[];autosize=1;strokeColor=none;fillColor=none;" vertex="1" parent="1">
          <mxGeometry x="420" y="298" width="40" height="30" as="geometry" />
        </mxCell>
        <mxCell id="U0pfPZSXKxCvl-s96Uc3-55" value="Yes" style="text;html=1;align=center;verticalAlign=middle;resizable=0;points=[];autosize=1;strokeColor=none;fillColor=none;" vertex="1" parent="1">
          <mxGeometry x="80" y="318" width="40" height="30" as="geometry" />
        </mxCell>
        <mxCell id="U0pfPZSXKxCvl-s96Uc3-56" style="edgeStyle=orthogonalEdgeStyle;rounded=0;orthogonalLoop=1;jettySize=auto;html=1;entryX=0.98;entryY=0.39;entryDx=0;entryDy=0;entryPerimeter=0;" edge="1" parent="1" source="U0pfPZSXKxCvl-s96Uc3-19" target="U0pfPZSXKxCvl-s96Uc3-8">
          <mxGeometry relative="1" as="geometry">
            <Array as="points">
              <mxPoint x="590" y="1460" />
              <mxPoint x="590" y="733" />
            </Array>
          </mxGeometry>
        </mxCell>
        <mxCell id="U0pfPZSXKxCvl-s96Uc3-59" style="edgeStyle=orthogonalEdgeStyle;rounded=0;orthogonalLoop=1;jettySize=auto;html=1;entryX=1.014;entryY=0.643;entryDx=0;entryDy=0;entryPerimeter=0;" edge="1" parent="1" source="U0pfPZSXKxCvl-s96Uc3-24" target="U0pfPZSXKxCvl-s96Uc3-15">
          <mxGeometry relative="1" as="geometry">
            <Array as="points">
              <mxPoint x="713" y="1609" />
            </Array>
          </mxGeometry>
        </mxCell>
        <mxCell id="U0pfPZSXKxCvl-s96Uc3-60" value="Yes" style="text;html=1;align=center;verticalAlign=middle;resizable=0;points=[];autosize=1;strokeColor=none;fillColor=none;" vertex="1" parent="1">
          <mxGeometry x="70" y="1278" width="40" height="30" as="geometry" />
        </mxCell>
        <mxCell id="U0pfPZSXKxCvl-s96Uc3-61" value="No" style="text;html=1;align=center;verticalAlign=middle;resizable=0;points=[];autosize=1;strokeColor=none;fillColor=none;" vertex="1" parent="1">
          <mxGeometry x="280" y="1218" width="40" height="30" as="geometry" />
        </mxCell>
      </root>
    </mxGraphModel>
  </diagram>
</mxfile>
